<svg width="5000" height="5000" viewBox="0 0 5000 5000" fill="none" xmlns="http://www.w3.org/2000/svg">
<rect width="5000" height="5000" fill="#223D5D"/>
<path d="M1493.99 2467.15L1471.79 2472.92C1469.81 2473.41 1467.71 2473.1 1465.95 2472.06C1464.19 2471.01 1462.92 2469.31 1462.41 2467.33C1453.03 2434.67 1438.95 2415.73 1423.79 2415.19C1402.5 2413.75 1369.66 2445.86 1351.62 2499.8C1340.51 2531.38 1336.81 2565.08 1340.79 2598.31H1346.57C1370.09 2594.36 1392.35 2584.92 1411.54 2570.75C1430.73 2556.58 1446.31 2538.08 1457 2516.76C1457.94 2514.69 1459.66 2513.08 1461.79 2512.27C1463.92 2511.46 1466.28 2511.51 1468.36 2512.43L1489.29 2521.81C1490.15 2522.18 1490.93 2522.72 1491.57 2523.4C1492.22 2524.08 1492.72 2524.88 1493.04 2525.76C1493.36 2526.64 1493.5 2527.58 1493.44 2528.51C1493.39 2529.45 1493.14 2530.36 1492.72 2531.19C1479.34 2558.81 1459.4 2582.73 1434.65 2600.87C1409.9 2619.02 1381.08 2630.83 1350.72 2635.29H1348.73C1359.42 2664.57 1378.19 2690.21 1402.86 2709.26C1404.59 2710.59 1405.74 2712.52 1406.07 2714.67C1406.41 2716.82 1405.91 2719.02 1404.67 2720.81L1392.22 2738.85C1391.52 2739.83 1390.63 2740.67 1389.6 2741.31C1388.57 2741.94 1387.43 2742.37 1386.23 2742.55C1385.04 2742.74 1383.82 2742.68 1382.64 2742.39C1381.47 2742.09 1380.37 2741.56 1379.41 2740.83C1344.4 2714.23 1319.05 2676.91 1307.23 2634.57C1274.61 2628.13 1245.58 2609.73 1225.85 2582.97C1210.22 2562.74 1199.16 2539.36 1193.43 2514.45C1187.69 2489.53 1187.43 2463.67 1192.65 2438.64C1202.21 2392.64 1241.91 2289.08 1403.95 2305.14C1406.26 2305.41 1408.38 2306.59 1409.83 2308.41C1411.29 2310.24 1411.96 2312.56 1411.7 2314.88L1409 2336.89C1408.77 2338.87 1407.77 2340.68 1406.22 2341.93C1404.67 2343.18 1402.68 2343.77 1400.7 2343.57C1280.52 2331.48 1241.73 2392.46 1230.54 2446.4C1226.44 2465.97 1226.62 2486.2 1231.07 2505.7C1235.53 2525.19 1244.15 2543.49 1256.35 2559.34C1267.34 2574.37 1282.44 2585.89 1299.83 2592.53C1297.29 2556.91 1301.95 2521.14 1313.55 2487.35C1337 2419.52 1381.57 2375.14 1424.16 2376.76C1448.15 2376.76 1479.91 2392.64 1498.68 2457.23C1499.28 2459.17 1499.13 2461.26 1498.26 2463.1C1497.39 2464.94 1495.87 2466.38 1493.99 2467.15Z" fill="white"/>
<path d="M2267.35 2620.68L2263.02 2600.29C2262.79 2599.25 2262.35 2598.26 2261.73 2597.39C2261.12 2596.51 2260.33 2595.77 2259.43 2595.2C2258.52 2594.63 2257.51 2594.24 2256.46 2594.07C2255.4 2593.89 2254.32 2593.92 2253.28 2594.16C2199.15 2604.8 2183.09 2591.99 2151.87 2581.89C2155.17 2539.63 2155.71 2497.21 2153.5 2454.88C2152.27 2433.85 2143.79 2413.89 2129.5 2398.41C2131.3 2389.75 2133.11 2380.37 2134.73 2372.25C2160.12 2238.42 2171.79 2102.35 2169.55 1966.15C2169.55 1897.23 2137.8 1844.91 2093.41 1841.66C2075.36 1840.22 2016 1846.72 1997.23 1980.4C1987.43 2099.95 1986.1 2220.04 1993.26 2339.78C1993.45 2341.82 1994.41 2343.71 1995.96 2345.06C1997.51 2346.4 1999.52 2347.1 2001.56 2347L2025.2 2346.63C2027.09 2346.5 2028.84 2345.62 2030.09 2344.21C2031.33 2342.79 2031.98 2340.94 2031.88 2339.06C2024.74 2221.37 2026.01 2103.32 2035.67 1985.81C2045.95 1911.84 2071.76 1880.09 2090.7 1880.81C2109.65 1881.53 2131.3 1915.63 2131.12 1967.23C2133.21 2100.53 2121.72 2233.7 2096.84 2364.68L2094.67 2376.76C2091.82 2375.89 2088.93 2375.17 2086.01 2374.6C2072.92 2372.21 2059.4 2374.52 2047.85 2381.12C2036.3 2387.72 2027.44 2398.19 2022.86 2410.68C2010.71 2445.12 2011.42 2482.8 2024.84 2516.76C2010.48 2532.5 1994.91 2547.09 1978.29 2560.42C1983.34 2528.07 1988.99 2494.15 1995.25 2458.67C1995.57 2456.83 1995.17 2454.94 1994.12 2453.39C1993.08 2451.85 1991.48 2450.76 1989.66 2450.37L1966.56 2446.22C1964.46 2445.85 1962.29 2446.33 1960.53 2447.54C1958.78 2448.76 1957.57 2450.62 1957.18 2452.72C1949.78 2494.03 1942.02 2540.76 1934.8 2590.01C1922.03 2597.9 1907.99 2603.52 1893.3 2606.61C1892.4 2606.72 1891.54 2607.01 1890.75 2607.46C1889.97 2607.91 1889.29 2608.52 1888.75 2609.25C1888.21 2609.97 1887.82 2610.8 1887.61 2611.68C1887.4 2612.56 1887.37 2613.47 1887.53 2614.36L1889.33 2630.78C1889.46 2631.89 1889.82 2632.97 1890.37 2633.94C1890.93 2634.91 1891.68 2635.75 1892.57 2636.43C1893.47 2637.1 1894.49 2637.59 1895.57 2637.86C1896.66 2638.13 1897.79 2638.18 1898.89 2638C1909.39 2635.85 1919.57 2632.4 1929.21 2627.71C1900.34 2833.74 1883.02 3068.28 1940.4 3136.83C1945.55 3143.52 1952.16 3148.95 1959.73 3152.7C1967.29 3156.45 1975.62 3158.43 1984.06 3158.48C2075.91 3158.48 2121.2 3019.75 2146.46 2663.8C2146.46 2652.79 2148.08 2641.07 2148.98 2629.16C2149.17 2626.52 2149.17 2623.86 2148.98 2621.22C2183.45 2630.96 2206 2642.51 2259.77 2632.22C2261.03 2631.97 2262.23 2631.46 2263.29 2630.74C2264.35 2630.02 2265.26 2629.1 2265.96 2628.03C2266.67 2626.95 2267.15 2625.75 2267.39 2624.49C2267.63 2623.23 2267.62 2621.93 2267.35 2620.68ZM2058.76 2424.57C2060.05 2420.87 2062.51 2417.69 2065.76 2415.51C2069.02 2413.33 2072.9 2412.27 2076.81 2412.48H2080.78C2082.62 2412.8 2084.44 2413.28 2086.19 2413.93C2081.05 2434.1 2072.77 2453.34 2061.65 2470.94L2055.34 2480.14C2051.37 2461.65 2052.56 2442.43 2058.76 2424.57ZM2109.83 2626.27C2109.83 2638.36 2108.2 2649.91 2107.3 2661.09C2093.77 2858.1 2066.16 3120.06 1984.06 3120.06C1981.23 3119.95 1978.46 3119.17 1975.99 3117.79C1973.51 3116.41 1971.39 3114.47 1969.81 3112.12C1937.87 3073.87 1924.7 2920.7 1971.43 2605.52C1997.18 2589.44 2021.35 2570.96 2043.61 2550.32L2047.04 2555.19C2064.21 2577.51 2086.49 2595.39 2111.99 2607.33C2110.73 2613.64 2110.37 2619.96 2109.83 2626.27ZM2114.16 2564.93C2100.25 2556.17 2088.03 2544.99 2078.07 2531.92C2075.68 2528.76 2073.51 2525.45 2071.58 2521.99C2079.72 2512.56 2087.25 2502.62 2094.13 2492.23C2102.54 2479.19 2109.5 2465.28 2114.88 2450.73C2115.07 2452.95 2115.07 2455.19 2114.88 2457.41C2116.97 2493.23 2116.73 2529.14 2114.16 2564.93Z" fill="white"/>
<path d="M1161.98 2612.02C992.723 2612.02 862.264 2562.95 784.134 2467.69C711.958 2381.27 688.681 2261.84 715.927 2131.77C731.477 2065.4 765.313 2004.72 813.598 1956.6C861.884 1908.48 922.687 1874.85 989.114 1859.53C1132.2 1823.44 1275.29 1872.15 1374.89 1988.34C1376.27 1990.05 1376.92 1992.23 1376.72 1994.42C1376.52 1996.61 1375.48 1998.63 1373.81 2000.07L1356.85 2013.96C1355.14 2015.33 1352.96 2015.99 1350.77 2015.78C1348.58 2015.58 1346.56 2014.54 1345.12 2012.87C1304.2 1962.72 1249.91 1925.17 1188.54 1904.58C1127.17 1883.99 1061.21 1881.19 998.316 1896.51C938.786 1910.08 884.261 1940.09 840.942 1983.11C797.624 2026.14 767.251 2080.45 753.278 2139.88C728.378 2258.23 749.85 2366.12 813.545 2443.33C883.917 2529.03 1004.63 2573.95 1161.07 2573.41C1162.06 2573.43 1163.03 2573.65 1163.93 2574.06C1164.84 2574.46 1165.65 2575.04 1166.32 2575.77C1166.99 2576.49 1167.51 2577.34 1167.85 2578.27C1168.19 2579.2 1168.34 2580.18 1168.29 2581.17V2604.8C1168.27 2606.56 1167.62 2608.25 1166.46 2609.57C1165.3 2610.89 1163.71 2611.76 1161.98 2612.02Z" fill="white"/>
<path d="M546.314 2629.16C512.139 2628.66 478.777 2618.66 449.959 2600.29C449.135 2599.81 448.418 2599.17 447.85 2598.4C447.283 2597.64 446.877 2596.76 446.657 2595.83C446.438 2594.91 446.41 2593.94 446.574 2593C446.738 2592.06 447.092 2591.17 447.613 2590.37L461.146 2569.44C461.588 2568.72 462.169 2568.1 462.856 2567.61C463.544 2567.11 464.323 2566.77 465.147 2566.58C465.972 2566.4 466.825 2566.38 467.656 2566.53C468.488 2566.68 469.28 2567 469.988 2567.46C563.456 2629.16 632.384 2573.59 711.597 2476.35C713.046 2474.94 714.988 2474.15 717.01 2474.15C719.032 2474.15 720.975 2474.94 722.423 2476.35L738.302 2490.96C739.186 2491.84 739.888 2492.88 740.367 2494.02C740.846 2495.17 741.092 2496.4 741.092 2497.64C741.092 2498.88 740.846 2500.11 740.367 2501.26C739.888 2502.4 739.186 2503.44 738.302 2504.31C690.486 2556.45 634.73 2629.16 546.314 2629.16Z" fill="white"/>
<path d="M2541.98 2601.92V2622.66C2541.94 2624.05 2541.61 2625.41 2541.02 2626.66C2540.42 2627.91 2539.56 2629.02 2538.51 2629.93C2537.46 2630.83 2536.22 2631.5 2534.9 2631.89C2533.57 2632.29 2532.17 2632.4 2530.79 2632.22C2482.26 2625.91 2455.19 2580.63 2425.06 2527.23C2396.33 2560 2362.96 2588.39 2325.99 2611.48C2325.13 2612.04 2324.17 2612.43 2323.15 2612.62C2322.14 2612.81 2321.1 2612.8 2320.09 2612.58C2319.08 2612.36 2318.13 2611.94 2317.28 2611.35C2316.44 2610.76 2315.72 2610 2315.17 2609.13L2302.54 2588.75C2302.08 2587.99 2301.78 2587.15 2301.65 2586.28C2301.52 2585.4 2301.57 2584.51 2301.79 2583.66C2302.01 2582.8 2302.39 2582 2302.92 2581.29C2303.46 2580.58 2304.12 2579.99 2304.88 2579.54C2342.97 2555.81 2377.48 2526.77 2407.37 2493.31C2395.28 2468.77 2384.64 2443.7 2375.07 2421.14C2368.4 2404.73 2363.35 2385.06 2358.47 2371.71C2357.83 2369.77 2357.95 2367.66 2358.83 2365.81C2359.7 2363.96 2361.26 2362.52 2363.17 2361.79L2383.74 2354.21C2384.83 2353.81 2385.98 2353.62 2387.15 2353.67C2388.31 2353.71 2389.45 2353.98 2390.5 2354.47C2391.56 2354.96 2392.51 2355.65 2393.3 2356.5C2394.09 2357.35 2394.7 2358.35 2395.1 2359.44C2399.98 2373.7 2403.95 2389.75 2410.8 2406.35C2417.66 2422.95 2425.6 2442.43 2434.26 2460.47C2573.74 2270.5 2536.57 2013.96 2501.92 1930.97C2489.65 1901.92 2473.6 1884.6 2456.09 1882.44C2445.62 1880.23 2434.77 1880.55 2424.44 1883.37C2414.12 1886.2 2404.62 1891.44 2396.73 1898.67C2354.32 1940.17 2355.05 2092.07 2374.35 2295.58C2374.51 2298.05 2373.72 2300.49 2372.15 2302.4C2370.57 2304.31 2368.33 2305.55 2365.87 2305.86L2344.4 2307.85C2343.4 2307.95 2342.4 2307.85 2341.44 2307.55C2340.48 2307.26 2339.59 2306.78 2338.82 2306.15C2338.05 2305.51 2337.41 2304.73 2336.94 2303.84C2336.48 2302.96 2336.19 2301.99 2336.1 2300.99C2314.63 2077.64 2316.97 1922.13 2369.84 1870.71C2381.78 1859.57 2396.14 1851.34 2411.79 1846.68C2427.45 1842.01 2443.97 1841.04 2460.06 1843.83C2491.64 1847.8 2519.07 1873.42 2536.57 1915.99C2583.3 2027.67 2590.7 2304.42 2450.5 2494.93C2476.84 2545.09 2497.59 2588.2 2533.68 2593.98C2535.82 2593.98 2537.88 2594.8 2539.43 2596.28C2540.97 2597.76 2541.89 2599.78 2541.98 2601.92Z" fill="white"/>
<path d="M3929.03 2519.11C3915.76 2546.83 3895.25 2570.45 3869.66 2587.48C3860.78 2592.87 3850.33 2595.11 3840.02 2593.84C3829.71 2592.56 3820.12 2587.84 3812.82 2580.45C3767.53 2537.51 3757.61 2411.04 3791.17 2319.75C3792.12 2317.29 3792.07 2314.55 3791.03 2312.12C3789.98 2309.69 3788.02 2307.77 3785.58 2306.76L3768.8 2299.91C3767.53 2299.38 3766.17 2299.11 3764.8 2299.12C3763.43 2299.13 3762.07 2299.41 3760.81 2299.95C3759.55 2300.48 3758.41 2301.27 3757.46 2302.25C3756.51 2303.24 3755.76 2304.4 3755.26 2305.68C3726.95 2384.01 3725.24 2469.48 3750.39 2548.88C3736.5 2577.2 3698.78 2603 3676.77 2592.53C3605.5 2560.96 3604.59 2284.75 3604.59 2102V2094.06C3639.12 2090.57 3673.46 2087.68 3707.63 2085.4C3709.48 2085.22 3711.19 2084.33 3712.4 2082.91C3713.61 2081.5 3714.22 2079.68 3714.12 2077.82L3712.32 2053.29C3712.27 2052.37 3712.04 2051.47 3711.64 2050.64C3711.24 2049.82 3710.68 2049.08 3709.99 2048.47C3709.3 2047.87 3708.5 2047.41 3707.63 2047.12C3706.76 2046.83 3705.83 2046.72 3704.92 2046.79C3671.54 2049.14 3637.98 2052.02 3604.59 2055.27C3605.9 1988 3601.8 1920.73 3592.32 1854.11C3592.12 1853.15 3591.71 1852.24 3591.14 1851.44C3590.56 1850.64 3589.83 1849.96 3588.98 1849.46C3588.14 1848.95 3587.2 1848.62 3586.22 1848.49C3585.24 1848.36 3584.25 1848.43 3583.3 1848.7L3559.3 1854.65C3558.51 1854.82 3557.75 1855.15 3557.08 1855.62C3556.41 1856.08 3555.84 1856.68 3555.41 1857.37C3554.97 1858.06 3554.67 1858.83 3554.54 1859.63C3554.4 1860.43 3554.43 1861.26 3554.61 1862.05C3563.06 1927.84 3566.37 1994.2 3564.54 2060.5C3525.56 2064.65 3486.59 2069.16 3447.97 2074.39C3447.05 2074.51 3446.15 2074.8 3445.34 2075.26C3444.53 2075.72 3443.81 2076.34 3443.24 2077.08C3442.67 2077.82 3442.25 2078.66 3442.01 2079.56C3441.77 2080.47 3441.71 2081.41 3441.84 2082.33L3445.09 2106.69C3445.35 2108.49 3446.31 2110.12 3447.76 2111.23C3449.21 2112.34 3451.03 2112.85 3452.84 2112.64C3490.02 2107.59 3527.31 2103.14 3564.72 2099.29V2102.9C3564.72 2213.49 3566.52 2313.98 3573.74 2397.15C3573.74 2482.48 3545.77 2549.06 3519.61 2577.56C3516.06 2582.17 3511.64 2586.02 3506.59 2588.9C3501.54 2591.78 3495.97 2593.63 3490.2 2594.34C3466.92 2594.34 3451.76 2556.09 3445.27 2480.5C3445.27 2475.81 3445.27 2472.02 3444.18 2469.49C3431.55 2369.01 3399.43 2309.47 3351.26 2297.02C3335.32 2294.23 3318.98 2294.69 3303.23 2298.38C3287.47 2302.07 3272.63 2308.91 3259.59 2318.49C3252.93 2303.34 3243.26 2289.71 3231.16 2278.42C3219.06 2267.13 3204.79 2258.42 3189.22 2252.82C3187.99 2252.41 3186.69 2252.26 3185.39 2252.38C3184.1 2252.49 3182.85 2252.88 3181.71 2253.51C3180.58 2254.13 3179.58 2254.99 3178.79 2256.02C3178.01 2257.05 3177.44 2258.24 3177.13 2259.5L3171.18 2279.88C3170.71 2281.79 3170.96 2283.81 3171.9 2285.55C3172.83 2287.28 3174.37 2288.61 3176.23 2289.26C3188.26 2293.52 3199.16 2300.45 3208.1 2309.55C3217.04 2318.65 3223.79 2329.67 3227.84 2341.76C3205.86 2361.05 3186.02 2382.65 3168.65 2406.17C3167.96 2407.06 3167.45 2408.08 3167.17 2409.17C3166.89 2410.26 3166.83 2411.4 3166.99 2412.51C3167.16 2413.63 3167.56 2414.69 3168.15 2415.65C3168.75 2416.61 3169.53 2417.43 3170.46 2418.08L3188.5 2431.07C3190.32 2432.32 3192.54 2432.82 3194.72 2432.49C3196.9 2432.15 3198.87 2431 3200.23 2429.26C3211.65 2413.7 3224.26 2399.04 3237.94 2385.42C3243.35 2453.62 3213.94 2538.41 3169.55 2574.67C3153.13 2589.29 3142.85 2595.06 3133.47 2594.34C3124.08 2593.62 3109.29 2583.51 3092.87 2564.03C3089.26 2559.16 3086.01 2554.47 3082.94 2549.6C3112.78 2502.86 3127.93 2448.25 3126.43 2392.82C3123 2336.53 3094.31 2302.61 3051.73 2303.7C3039.54 2303.97 3027.68 2307.65 3017.47 2314.31C3007.27 2320.97 2999.13 2330.36 2993.98 2341.4C2981.9 2365.4 2963.67 2430.71 3036.39 2548.88C3027.01 2561.33 3015.24 2571.79 3001.76 2579.63C2988.28 2587.47 2973.36 2592.53 2957.9 2594.52C2949.86 2595.6 2941.69 2594.9 2933.95 2592.47C2926.22 2590.04 2919.12 2585.93 2913.15 2580.45C2898.35 2566.01 2891.13 2538.23 2892.58 2502.33L2895.1 2417.36C2895.1 2382.54 2896.37 2343.39 2895.1 2311.82C2895.08 2310.73 2894.84 2309.67 2894.4 2308.68C2893.96 2307.69 2893.33 2306.8 2892.54 2306.06C2891.75 2305.32 2890.82 2304.75 2889.8 2304.37C2888.78 2304 2887.7 2303.83 2886.62 2303.88H2864.43C2862.51 2303.88 2860.68 2304.64 2859.33 2305.99C2857.97 2307.34 2857.21 2309.18 2857.21 2311.09V2416.63C2857.21 2441.89 2855.95 2464.8 2855.41 2480.32C2854.61 2507.88 2849.31 2535.12 2839.71 2560.96C2836.59 2569.19 2831.77 2576.66 2825.55 2582.88C2819.32 2589.1 2811.85 2593.93 2803.62 2597.05C2793.83 2598.04 2783.95 2596.95 2774.62 2593.84C2765.28 2590.73 2756.72 2585.67 2749.49 2579C2724.77 2560.96 2703.3 2508.1 2698.6 2469.13C2694.3 2426.46 2692.56 2383.56 2693.37 2340.68C2693.37 2328.59 2693.37 2317.95 2693.37 2309.47C2693.23 2307.65 2692.41 2305.95 2691.08 2304.71C2689.74 2303.48 2687.98 2302.79 2686.15 2302.79H2662.88C2660.66 2302.84 2658.55 2303.76 2657 2305.34C2655.45 2306.93 2654.58 2309.06 2654.58 2311.27V2339.96C2654.58 2344.29 2654.58 2348.8 2654.58 2353.13C2651.51 2467.51 2643.39 2574.31 2582.4 2593.44C2581.2 2593.87 2580.18 2594.69 2579.49 2595.77C2578.8 2596.84 2578.5 2598.12 2578.61 2599.39L2580.24 2625.19C2580.33 2626.23 2580.65 2627.24 2581.18 2628.15C2581.71 2629.05 2582.42 2629.84 2583.28 2630.44C2584.14 2631.04 2585.12 2631.44 2586.15 2631.63C2587.18 2631.81 2588.24 2631.77 2589.26 2631.5C2622.46 2623.2 2658.73 2578.46 2672.08 2523.26C2681.3 2556.57 2700.13 2586.44 2726.21 2609.13C2745.47 2624.73 2769.14 2633.88 2793.88 2635.29C2799.94 2635.39 2806 2634.79 2811.92 2633.49C2824.39 2629.81 2835.97 2623.62 2845.96 2615.31C2855.95 2606.99 2864.14 2596.73 2870.02 2585.14C2874.24 2593.4 2879.72 2600.94 2886.26 2607.51C2896.14 2616.87 2907.94 2623.97 2920.84 2628.3C2933.74 2632.63 2947.44 2634.1 2960.96 2632.59C2998.52 2628.04 3033.05 2609.72 3057.86 2581.17C3058.94 2582.97 3060.21 2584.6 3061.65 2586.58V2587.66C3086.37 2616.89 3107.12 2630.6 3129.32 2632.04C3141.29 2631.79 3153.09 2629.12 3164.01 2624.19C3174.92 2619.26 3184.73 2612.18 3192.83 2603.36C3252.92 2554.29 3288.64 2440.99 3270.78 2355.29C3304.52 2332.2 3329.6 2330.76 3340.61 2333.65C3370.74 2341.4 3394.74 2393.72 3404.85 2473.64C3404.85 2475.81 3404.85 2479.06 3405.75 2483.21C3409.36 2523.98 3418.56 2632.23 3489.11 2632.23C3500.3 2631.71 3511.25 2628.82 3521.24 2623.75C3531.22 2618.68 3540.01 2611.54 3547.03 2602.82C3567.88 2577.67 3582.92 2548.22 3591.06 2516.58C3605.32 2573.77 3627.15 2612.56 3659.45 2626.99C3668.38 2631.12 3678.12 2633.22 3687.96 2633.13C3719.17 2628.02 3747.45 2611.73 3767.53 2587.3C3772.3 2594.79 3778 2601.64 3784.49 2607.69C3799.71 2622.93 3820.33 2631.56 3841.87 2631.68C3856.51 2631.41 3870.92 2627.97 3884.1 2621.58C3911.45 2605.41 3934.19 2582.49 3950.14 2555.01C3941.93 2543.77 3934.86 2531.74 3929.03 2519.11ZM3060.57 2512.97C3018.34 2438.28 3015.1 2385.6 3028.81 2359.08C3030.96 2354.15 3034.49 2349.95 3038.97 2346.97C3043.45 2344 3048.69 2342.38 3054.07 2342.3C3081.14 2342.3 3087.27 2375.32 3088.54 2395.17C3089.28 2436.27 3079.33 2476.87 3059.67 2512.97H3060.57Z" fill="white"/>
<path d="M4232.71 2393.36L4212.14 2400.58C4210.13 2401.34 4207.9 2401.27 4205.94 2400.39C4203.97 2399.52 4202.44 2397.89 4201.67 2395.89C4194.98 2379.87 4183.71 2366.18 4169.26 2356.55C4154.81 2346.92 4137.84 2341.77 4120.47 2341.76H4119.21C4066.34 2341.76 4020.15 2386.69 3995.79 2459.75C3988.76 2481.35 3980.13 2502.39 3969.99 2522.72C3963.67 2534.98 3957.36 2545.81 3951.04 2555.73C3942.2 2544.51 3934.52 2532.42 3928.12 2519.65C3934.85 2507.99 3940.87 2495.94 3946.17 2483.57C3950.86 2472.92 3955.19 2461.01 3959.52 2447.48C3989.29 2357.28 4048.84 2304.24 4119.03 2303.15C4144.51 2303.02 4169.44 2310.54 4190.61 2324.72C4211.77 2338.9 4228.2 2359.1 4237.76 2382.72C4238.42 2384.8 4238.26 2387.06 4237.32 2389.03C4236.39 2391 4234.74 2392.55 4232.71 2393.36Z" fill="white"/>
<path d="M3805.42 2258.77C3824.96 2258.77 3840.79 2242.94 3840.79 2223.41C3840.79 2203.88 3824.96 2188.05 3805.42 2188.05C3785.89 2188.05 3770.06 2203.88 3770.06 2223.41C3770.06 2242.94 3785.89 2258.77 3805.42 2258.77Z" fill="white"/>
<path d="M1855.05 2611.48V2631.32C1855.03 2632.27 1854.81 2633.19 1854.41 2634.05C1854.01 2634.9 1853.43 2635.66 1852.72 2636.27C1852 2636.89 1851.16 2637.34 1850.26 2637.61C1849.35 2637.87 1848.4 2637.95 1847.47 2637.82C1821.67 2633.31 1800.37 2611.84 1783.41 2573.77C1777.93 2554.99 1774.78 2535.6 1774.03 2516.04C1774.03 2505.94 1774.03 2494.75 1774.03 2482.85C1775.42 2457.04 1773.61 2431.16 1768.62 2405.81C1759.23 2372.97 1746.42 2353.13 1729.46 2344.83C1720.96 2341.41 1711.83 2339.84 1702.68 2340.25C1693.53 2340.65 1684.57 2343.02 1676.41 2347.18C1665.77 2352.63 1655.83 2359.35 1646.82 2367.2C1651.71 2459.47 1625.33 2550.68 1571.94 2626.09C1571.24 2627.08 1570.35 2627.92 1569.32 2628.55C1568.29 2629.19 1567.15 2629.61 1565.95 2629.8C1564.76 2629.98 1563.54 2629.93 1562.36 2629.63C1561.19 2629.33 1560.09 2628.81 1559.12 2628.08L1541.08 2615.27C1539.5 2613.99 1538.47 2612.16 1538.2 2610.14C1537.93 2608.13 1538.45 2606.09 1539.64 2604.44C1582.19 2544.33 1606.21 2473.09 1608.75 2399.5L1600.08 2406.71C1585.35 2418.71 1571.25 2431.48 1557.86 2444.96C1556.65 2446.13 1555.03 2446.78 1553.35 2446.78C1551.67 2446.78 1550.05 2446.13 1548.84 2444.96L1530.8 2426.92C1529.44 2425.48 1528.68 2423.57 1528.68 2421.6C1528.68 2419.62 1529.44 2417.71 1530.8 2416.27C1548.84 2399.5 1559.67 2389.03 1575.54 2375.86L1586.73 2366.66L1600.08 2355.11C1601.89 2353.31 1604.05 2351.69 1606.04 2349.88C1602.56 2322.76 1594.89 2296.35 1583.3 2271.58C1582.9 2270.82 1582.66 2269.98 1582.59 2269.11C1582.51 2268.25 1582.61 2267.38 1582.88 2266.56C1583.15 2265.73 1583.58 2264.97 1584.15 2264.32C1584.72 2263.66 1585.41 2263.13 1586.19 2262.74L1605.68 2252.64C1611.63 2249.57 1616.14 2251.2 1617.95 2254.99C1628.48 2276.74 1636.3 2299.7 1641.22 2323.36C1647.67 2318.97 1654.42 2315.05 1661.43 2311.64C1674.6 2305.5 1688.92 2302.24 1703.45 2302.05C1717.98 2301.86 1732.38 2304.76 1745.7 2310.55C1773.13 2323.72 1792.61 2351.69 1805.25 2395.53C1812.64 2421.14 1808.49 2442.61 1808.13 2485.73C1807.77 2528.85 1803.26 2569.62 1850.17 2605.89C1851.42 2606.29 1852.53 2607.02 1853.38 2608.01C1854.24 2608.99 1854.82 2610.19 1855.05 2611.48Z" fill="white"/>
<path d="M4553.53 2424.57C4552.69 2462.65 4545.11 2500.27 4531.16 2535.71C4475.76 2667.77 4302.18 2667.95 4231.99 2549.96C4159.81 2691.22 4020.33 2646.48 3951.04 2555.73C3942.2 2544.51 3934.52 2532.42 3928.12 2519.65C3909.51 2485.13 3904.67 2444.84 3914.59 2406.89C3914.74 2406.36 3915.06 2405.89 3915.5 2405.55C3915.94 2405.22 3916.47 2405.04 3917.03 2405.04C3917.58 2405.04 3918.12 2405.22 3918.56 2405.55C3919 2405.89 3919.32 2406.36 3919.46 2406.89C3925.15 2433.26 3934.06 2458.83 3945.99 2483.03C3952.75 2497.02 3960.78 2510.37 3969.99 2522.9C4050.46 2633.85 4188.5 2634.03 4222.6 2451.63C4222.6 2447.66 4229.28 2447.66 4230.9 2451.63C4248.95 2501.79 4278.54 2559.88 4324.91 2585.14C4429.93 2640.88 4513.29 2533 4546.13 2423.85C4546.49 2423.13 4547.06 2422.53 4547.76 2422.13C4548.47 2421.74 4549.28 2421.57 4550.08 2421.65C4550.89 2421.73 4551.65 2422.05 4552.26 2422.57C4552.88 2423.09 4553.32 2423.79 4553.53 2424.57Z" fill="white"/>
</svg>
